<svg width="516" height="275" viewBox="0 0 516 275" fill="none" xmlns="http://www.w3.org/2000/svg">
<path d="M474.56 194.836C470.312 194.836 466.316 194.224 462.572 193C458.9 191.704 455.588 189.796 452.636 187.276C449.756 184.684 447.308 181.372 445.292 177.34L457.604 169.672C459.692 173.128 462.248 175.756 465.272 177.556C468.296 179.356 471.68 180.256 475.424 180.256C478.664 180.256 481.112 179.572 482.768 178.204C484.424 176.836 485.252 175.036 485.252 172.804C485.252 171.364 484.856 170.14 484.064 169.132C483.344 168.052 482.012 167.044 480.068 166.108C478.124 165.172 475.316 164.272 471.644 163.408C465.668 161.968 460.916 160.168 457.388 158.008C453.932 155.848 451.484 153.292 450.044 150.34C448.604 147.316 447.884 143.968 447.884 140.296C447.884 135.976 448.928 132.16 451.016 128.848C453.176 125.464 456.236 122.8 460.196 120.856C464.156 118.912 468.872 117.94 474.344 117.94C480.536 117.94 485.756 119.164 490.004 121.612C494.324 124.06 497.78 127.264 500.372 131.224L488.06 139.756C486.188 137.308 483.92 135.544 481.256 134.464C478.664 133.384 476.072 132.844 473.48 132.844C470.384 132.844 467.972 133.456 466.244 134.68C464.588 135.832 463.76 137.488 463.76 139.648C463.76 141.664 464.624 143.356 466.352 144.724C468.08 146.02 471.464 147.244 476.504 148.396C482.552 149.836 487.412 151.6 491.084 153.688C494.756 155.776 497.42 158.332 499.076 161.356C500.732 164.38 501.56 168.016 501.56 172.264C501.56 176.584 500.444 180.436 498.212 183.82C496.052 187.204 492.956 189.904 488.924 191.92C484.892 193.864 480.104 194.836 474.56 194.836Z" fill="#F3822D"/>
<path d="M380.288 193V119.452H406.64C412.688 119.452 417.548 120.208 421.22 121.72C424.892 123.232 427.556 125.5 429.212 128.524C430.94 131.476 431.804 135.184 431.804 139.648C431.804 143.176 431.012 146.308 429.428 149.044C427.916 151.708 425.828 153.796 423.164 155.308C420.5 156.82 417.476 157.576 414.092 157.576L414.416 154.12C418.664 154.12 422.192 154.912 425 156.496C427.808 158.08 429.932 160.24 431.372 162.976C432.812 165.712 433.532 168.808 433.532 172.264C433.532 179.176 431.408 184.36 427.16 187.816C422.984 191.272 416.792 193 408.584 193H380.288ZM396.056 127.552V184.144L390.44 177.88H408.368C411.176 177.88 413.372 177.196 414.956 175.828C416.612 174.46 417.44 172.588 417.44 170.212C417.44 167.62 416.648 165.676 415.064 164.38C413.552 163.084 411.392 162.436 408.584 162.436H390.44V148.828H406.964C409.844 148.828 412.004 148.252 413.444 147.1C414.884 145.948 415.604 144.148 415.604 141.7C415.604 139.468 414.848 137.74 413.336 136.516C411.896 135.22 409.772 134.572 406.964 134.572H390.872L396.056 127.552Z" fill="#F3822D"/>
<path d="M290.52 156.28C290.52 150.736 291.42 145.66 293.22 141.052C295.092 136.372 297.72 132.34 301.104 128.956C304.488 125.5 308.484 122.836 313.092 120.964C317.7 119.092 322.812 118.156 328.428 118.156C333.9 118.156 338.94 119.092 343.548 120.964C348.228 122.836 352.26 125.5 355.644 128.956C359.028 132.34 361.62 136.372 363.42 141.052C365.292 145.66 366.228 150.736 366.228 156.28C366.228 161.824 365.292 166.936 363.42 171.616C361.62 176.224 359.028 180.256 355.644 183.712C352.26 187.096 348.228 189.724 343.548 191.596C338.94 193.396 333.9 194.296 328.428 194.296C322.812 194.296 317.7 193.396 313.092 191.596C308.484 189.724 304.488 187.096 301.104 183.712C297.72 180.256 295.092 176.224 293.22 171.616C291.42 166.936 290.52 161.824 290.52 156.28ZM306.612 156.28C306.612 160.816 307.548 164.776 309.42 168.16C311.292 171.544 313.848 174.172 317.088 176.044C320.4 177.916 324.18 178.852 328.428 178.852C332.604 178.852 336.312 177.916 339.552 176.044C342.864 174.172 345.456 171.544 347.328 168.16C349.2 164.776 350.136 160.78 350.136 156.172C350.136 151.636 349.2 147.676 347.328 144.292C345.456 140.908 342.864 138.316 339.552 136.516C336.312 134.644 332.604 133.708 328.428 133.708C324.18 133.708 320.4 134.644 317.088 136.516C313.848 138.388 311.292 141.016 309.42 144.4C307.548 147.712 306.612 151.672 306.612 156.28Z" fill="#F3822D"/>
<path d="M252.188 179.284C255.14 179.284 257.408 178.42 258.992 176.692C260.576 174.964 261.368 172.516 261.368 169.348V119.452H277.244V169.132C277.244 174.1 276.308 178.492 274.436 182.308C272.564 186.124 269.756 189.112 266.012 191.272C262.34 193.432 257.732 194.512 252.188 194.512C246.716 194.512 242.108 193.504 238.364 191.488C234.62 189.472 231.812 186.592 229.94 182.848C228.068 179.104 227.132 174.712 227.132 169.672V165.46H243.008V169.348C243.008 172.66 243.8 175.144 245.384 176.8C247.04 178.456 249.308 179.284 252.188 179.284Z" fill="#F3822D"/>
<path d="M501.208 104L460.924 49.46L467.728 47.624V104H451.96V30.452H466.324L505.744 84.02L499.696 85.1V30.452H515.464V104H501.208Z" fill="#572C6B"/>
<path d="M403.667 74.624V59.612H433.907V74.624H403.667ZM403.343 45.464L408.851 39.092V95.36L402.803 88.988H439.847V104H393.083V30.452H439.847V45.464H403.343Z" fill="#572C6B"/>
<path d="M383.243 104H338.531V30.452H354.299V94.712L350.303 88.772H383.243V104Z" fill="#572C6B"/>
<path d="M324.531 104H308.763V30.452H324.531V104Z" fill="#572C6B"/>
<path d="M263.636 105.296C256.22 105.296 249.668 103.676 243.98 100.436C238.364 97.196 234.008 92.768 230.912 87.152C227.816 81.464 226.268 75.02 226.268 67.82C226.268 62.132 227.168 56.948 228.968 52.268C230.84 47.516 233.432 43.448 236.744 40.064C240.056 36.608 243.98 33.944 248.516 32.072C253.124 30.2 258.164 29.264 263.636 29.264C272.06 29.264 279.008 31.064 284.48 34.664C290.024 38.192 294.308 43.268 297.332 49.892L282.968 55.616C280.592 51.728 277.82 48.92 274.652 47.192C271.484 45.392 267.812 44.492 263.636 44.492C259.532 44.492 255.86 45.464 252.62 47.408C249.452 49.28 246.932 51.944 245.06 55.4C243.26 58.856 242.36 62.996 242.36 67.82C242.36 72.284 243.26 76.244 245.06 79.7C246.932 83.084 249.452 85.748 252.62 87.692C255.86 89.564 259.532 90.5 263.636 90.5C267.452 90.5 270.836 89.78 273.788 88.34C276.74 86.9 279.116 84.848 280.916 82.184C282.716 79.448 283.724 76.28 283.94 72.68L288.476 78.188H262.448V64.04H298.304C298.592 65.192 298.808 66.416 298.952 67.712C299.096 69.008 299.168 70.304 299.168 71.6C299.168 76.64 298.196 81.248 296.252 85.424C294.38 89.528 291.788 93.092 288.476 96.116C285.236 99.068 281.492 101.336 277.244 102.92C272.996 104.504 268.46 105.296 263.636 105.296Z" fill="#572C6B"/>
<path d="M379.306 274H375.114V252.208H379.306V274Z" fill="#572C6B"/>
<path d="M361.746 274.384C359.548 274.384 357.618 273.904 355.954 272.944C354.29 271.963 352.999 270.629 352.082 268.944C351.164 267.259 350.706 265.349 350.706 263.216C350.706 261.552 350.972 260.027 351.506 258.64C352.06 257.253 352.828 256.059 353.81 255.056C354.812 254.032 355.986 253.243 357.33 252.688C358.674 252.133 360.146 251.856 361.746 251.856C364.242 251.856 366.3 252.389 367.922 253.456C369.543 254.501 370.812 255.952 371.73 257.808L367.826 259.28C367.036 258.043 366.14 257.179 365.138 256.688C364.156 256.176 363.026 255.92 361.746 255.92C360.444 255.92 359.282 256.229 358.258 256.848C357.255 257.445 356.455 258.288 355.858 259.376C355.282 260.464 354.994 261.744 354.994 263.216C354.994 264.624 355.282 265.872 355.858 266.96C356.455 268.048 357.255 268.901 358.258 269.52C359.282 270.117 360.444 270.416 361.746 270.416C362.983 270.416 364.082 270.171 365.042 269.68C366.023 269.168 366.802 268.475 367.378 267.6C367.954 266.704 368.263 265.669 368.306 264.496L369.362 266.192H361.458V262.384H372.082C372.167 262.683 372.231 263.013 372.274 263.376C372.316 263.717 372.338 264.059 372.338 264.4C372.338 265.851 372.06 267.184 371.506 268.4C370.951 269.616 370.183 270.672 369.202 271.568C368.242 272.464 367.122 273.157 365.842 273.648C364.583 274.139 363.218 274.384 361.746 274.384Z" fill="#572C6B"/>
<path d="M347.774 274H343.582V252.208H347.774V274Z" fill="#572C6B"/>
<path d="M340.701 274H327.645V252.208H331.837V271.312L330.909 270H340.701V274Z" fill="#572C6B"/>
<path d="M314.161 274V254.48H318.385V274H314.161ZM307.601 256.208V252.208H325.137V256.208H307.601Z" fill="#572C6B"/>
<path d="M301.369 274L288.761 257.168L290.681 256.624V274H286.489V252.208H290.233L302.553 268.656L300.921 268.88V252.208H305.113V274H301.369Z" fill="#572C6B"/>
<path d="M272.12 265.072V261.072H281.016V265.072H272.12ZM272.024 256.176L273.368 254.576V271.472L271.864 270H282.84V274H269.176V252.208H282.84V256.176H272.024Z" fill="#572C6B"/>
<path d="M255.808 274.384C253.611 274.384 251.68 273.904 250.016 272.944C248.352 271.963 247.061 270.629 246.144 268.944C245.227 267.259 244.768 265.349 244.768 263.216C244.768 261.552 245.035 260.027 245.568 258.64C246.123 257.253 246.891 256.059 247.872 255.056C248.875 254.032 250.048 253.243 251.392 252.688C252.736 252.133 254.208 251.856 255.808 251.856C258.304 251.856 260.363 252.389 261.984 253.456C263.605 254.501 264.875 255.952 265.792 257.808L261.888 259.28C261.099 258.043 260.203 257.179 259.2 256.688C258.219 256.176 257.088 255.92 255.808 255.92C254.507 255.92 253.344 256.229 252.32 256.848C251.317 257.445 250.517 258.288 249.92 259.376C249.344 260.464 249.056 261.744 249.056 263.216C249.056 264.624 249.344 265.872 249.92 266.96C250.517 268.048 251.317 268.901 252.32 269.52C253.344 270.117 254.507 270.416 255.808 270.416C257.045 270.416 258.144 270.171 259.104 269.68C260.085 269.168 260.864 268.475 261.44 267.6C262.016 266.704 262.325 265.669 262.368 264.496L263.424 266.192H255.52V262.384H266.144C266.229 262.683 266.293 263.013 266.336 263.376C266.379 263.717 266.4 264.059 266.4 264.4C266.4 265.851 266.123 267.184 265.568 268.4C265.013 269.616 264.245 270.672 263.264 271.568C262.304 272.464 261.184 273.157 259.904 273.648C258.645 274.139 257.28 274.384 255.808 274.384Z" fill="#572C6B"/>
<path d="M228.992 265.712H239.744V269.616H228.992V265.712ZM224.448 274L232.192 252.208H237.088L244.576 274H240.352L234.048 255.088H235.264L228.672 274H224.448Z" fill="#572C6B"/>
<path d="M469.145 239V217.208H473.337V239H469.145ZM481.273 239L471.833 228.44V227.832L481.497 217.208H486.713L476.057 228.92L476.249 227.352L486.777 239H481.273Z" fill="#572C6B"/>
<path d="M464.806 239H460.614V217.208H464.806V239Z" fill="#572C6B"/>
<path d="M457.732 239H444.676V217.208H448.868V236.312L447.94 235H457.732V239Z" fill="#572C6B"/>
<path d="M423.332 239V217.208H430.82C433.018 217.208 434.927 217.645 436.548 218.52C438.191 219.395 439.46 220.643 440.356 222.264C441.274 223.885 441.732 225.837 441.732 228.12C441.732 230.424 441.274 232.387 440.356 234.008C439.46 235.629 438.191 236.867 436.548 237.72C434.906 238.573 432.986 239 430.788 239H423.332ZM427.524 236.408L425.956 235H430.5C431.844 235 433.028 234.755 434.052 234.264C435.098 233.773 435.919 233.027 436.516 232.024C437.114 231.021 437.412 229.72 437.412 228.12C437.412 226.584 437.114 225.304 436.516 224.28C435.94 223.256 435.13 222.488 434.084 221.976C433.06 221.464 431.876 221.208 430.532 221.208H425.732L427.524 219.928V236.408Z" fill="#572C6B"/>
<path d="M415.244 239L402.636 222.168L404.556 221.624V239H400.364V217.208H404.108L416.428 233.656L414.796 233.88V217.208H418.988V239H415.244Z" fill="#572C6B"/>
<path d="M382.523 230.712H393.275V234.616H382.523V230.712ZM377.979 239L385.723 217.208H390.619L398.107 239H393.883L387.579 220.088H388.795L382.203 239H377.979Z" fill="#572C6B"/>
<path d="M361.239 239V217.208H368.855C370.54 217.208 371.916 217.432 372.983 217.88C374.049 218.307 374.839 218.957 375.351 219.832C375.863 220.707 376.119 221.805 376.119 223.128C376.119 224.216 375.873 225.165 375.383 225.976C374.892 226.787 374.231 227.427 373.399 227.896C372.567 228.344 371.649 228.568 370.647 228.568L370.775 227.32C372.055 227.32 373.132 227.555 374.007 228.024C374.881 228.493 375.553 229.144 376.023 229.976C376.492 230.808 376.727 231.779 376.727 232.888C376.727 234.893 376.108 236.419 374.871 237.464C373.633 238.488 371.82 239 369.431 239H361.239ZM365.431 219.48V236.504L363.895 235H369.431C370.369 235 371.105 234.765 371.639 234.296C372.193 233.805 372.471 233.155 372.471 232.344C372.471 231.469 372.204 230.808 371.671 230.36C371.159 229.912 370.433 229.688 369.495 229.688H363.895V226.008H368.951C369.889 226.008 370.604 225.816 371.095 225.432C371.585 225.027 371.831 224.429 371.831 223.64C371.831 222.915 371.585 222.328 371.095 221.88C370.604 221.432 369.889 221.208 368.951 221.208H364.023L365.431 219.48Z" fill="#572C6B"/>
<path d="M342.371 229.016H340.195L346.147 217.208H350.723L342.979 232.024L343.363 229.336V239H339.171V229.336L339.491 232.024L331.811 217.208H336.451L342.371 229.016Z" fill="#572C6B"/>
<path d="M329.962 239H325.77V217.208H329.962V239Z" fill="#572C6B"/>
<path d="M314.94 239.512C313.724 239.512 312.572 239.331 311.484 238.968C310.396 238.605 309.415 238.04 308.54 237.272C307.687 236.504 306.961 235.501 306.364 234.264L309.692 232.248C310.353 233.379 311.132 234.221 312.028 234.776C312.924 235.331 313.959 235.608 315.132 235.608C316.199 235.608 317.009 235.384 317.564 234.936C318.119 234.467 318.396 233.848 318.396 233.08C318.396 232.589 318.268 232.173 318.012 231.832C317.777 231.469 317.351 231.128 316.732 230.808C316.113 230.488 315.217 230.2 314.044 229.944C312.295 229.517 310.919 228.984 309.916 228.344C308.935 227.704 308.241 226.957 307.836 226.104C307.431 225.229 307.228 224.269 307.228 223.224C307.228 221.965 307.527 220.867 308.124 219.928C308.743 218.968 309.617 218.211 310.748 217.656C311.879 217.101 313.223 216.824 314.78 216.824C316.572 216.824 318.076 217.176 319.292 217.88C320.508 218.563 321.5 219.491 322.268 220.664L318.94 222.936C318.343 222.168 317.66 221.624 316.892 221.304C316.145 220.963 315.377 220.792 314.588 220.792C313.564 220.792 312.775 220.995 312.22 221.4C311.687 221.805 311.42 222.371 311.42 223.096C311.42 223.736 311.687 224.291 312.22 224.76C312.775 225.208 313.841 225.624 315.42 226.008C317.212 226.435 318.641 226.957 319.708 227.576C320.775 228.195 321.532 228.941 321.98 229.816C322.449 230.691 322.684 231.747 322.684 232.984C322.684 234.221 322.364 235.331 321.724 236.312C321.105 237.293 320.209 238.072 319.036 238.648C317.884 239.224 316.519 239.512 314.94 239.512Z" fill="#572C6B"/>
<path d="M294.909 239.384C293.096 239.384 291.538 239.043 290.237 238.36C288.936 237.656 287.933 236.632 287.229 235.288C286.525 233.923 286.173 232.237 286.173 230.232V217.208H290.397V230.136C290.397 231.779 290.781 233.059 291.549 233.976C292.317 234.872 293.437 235.32 294.909 235.32C296.402 235.32 297.533 234.872 298.301 233.976C299.069 233.059 299.453 231.779 299.453 230.136V217.208H303.645V230.232C303.645 232.237 303.293 233.923 302.589 235.288C301.906 236.632 300.914 237.656 299.613 238.36C298.312 239.043 296.744 239.384 294.909 239.384Z" fill="#572C6B"/>
<path d="M275.659 239.512C274.443 239.512 273.291 239.331 272.203 238.968C271.115 238.605 270.133 238.04 269.259 237.272C268.405 236.504 267.68 235.501 267.083 234.264L270.411 232.248C271.072 233.379 271.851 234.221 272.747 234.776C273.643 235.331 274.677 235.608 275.851 235.608C276.917 235.608 277.728 235.384 278.283 234.936C278.837 234.467 279.115 233.848 279.115 233.08C279.115 232.589 278.987 232.173 278.731 231.832C278.496 231.469 278.069 231.128 277.451 230.808C276.832 230.488 275.936 230.2 274.763 229.944C273.013 229.517 271.637 228.984 270.635 228.344C269.653 227.704 268.96 226.957 268.555 226.104C268.149 225.229 267.947 224.269 267.947 223.224C267.947 221.965 268.245 220.867 268.843 219.928C269.461 218.968 270.336 218.211 271.467 217.656C272.597 217.101 273.941 216.824 275.499 216.824C277.291 216.824 278.795 217.176 280.011 217.88C281.227 218.563 282.219 219.491 282.987 220.664L279.659 222.936C279.061 222.168 278.379 221.624 277.611 221.304C276.864 220.963 276.096 220.792 275.307 220.792C274.283 220.792 273.493 220.995 272.939 221.4C272.405 221.805 272.139 222.371 272.139 223.096C272.139 223.736 272.405 224.291 272.939 224.76C273.493 225.208 274.56 225.624 276.139 226.008C277.931 226.435 279.36 226.957 280.427 227.576C281.493 228.195 282.251 228.941 282.699 229.816C283.168 230.691 283.403 231.747 283.403 232.984C283.403 234.221 283.083 235.331 282.443 236.312C281.824 237.293 280.928 238.072 279.755 238.648C278.603 239.224 277.237 239.512 275.659 239.512Z" fill="#572C6B"/>
<path d="M255.628 239.384C253.815 239.384 252.257 239.043 250.956 238.36C249.655 237.656 248.652 236.632 247.948 235.288C247.244 233.923 246.892 232.237 246.892 230.232V217.208H251.116V230.136C251.116 231.779 251.5 233.059 252.268 233.976C253.036 234.872 254.156 235.32 255.628 235.32C257.121 235.32 258.252 234.872 259.02 233.976C259.788 233.059 260.172 231.779 260.172 230.136V217.208H264.364V230.232C264.364 232.237 264.012 233.923 263.308 235.288C262.625 236.632 261.633 237.656 260.332 238.36C259.031 239.043 257.463 239.384 255.628 239.384Z" fill="#572C6B"/>
<path d="M229.536 217.208L235.168 225.624H234.208L239.84 217.208H244.864L236.896 228.664L236.576 227.16L244.896 239H239.776L233.76 230.232H235.296L229.376 239H224.256L232.48 227.16L232.448 228.664L224.512 217.208H229.536Z" fill="#572C6B"/>
<path d="M70 23.2469L93.2469 1.29164e-06L116.494 23.2469L93.2469 46.4939L70 23.2469Z" fill="#572C6B"/>
<path d="M105 58.2469L128.247 35L151.494 58.2469L128.247 81.4939L105 58.2469Z" fill="#954278"/>
<path d="M140 93.2469L163.247 70L186.494 93.2469L163.247 116.494L140 93.2469Z" fill="#CC568D"/>
<path d="M35 58.2469L58.2469 35L81.4939 58.2469L58.2469 81.4939L35 58.2469Z" fill="#572C6B"/>
<path d="M70 93.2469L93.2469 70L116.494 93.2469L93.2469 116.494L70 93.2469Z" fill="#793B75"/>
<path d="M105 128.247L128.247 105L151.494 128.247L128.247 151.494L105 128.247Z" fill="#CC568D"/>
<path d="M140 163.247L163.247 140L186.494 163.247L163.247 186.494L140 163.247Z" fill="#F3822D"/>
<path d="M0 93.2469L23.2469 70L46.4939 93.2469L23.2469 116.494L0 93.2469Z" fill="#572C6B"/>
<path d="M35 128.247L58.2469 105L81.4939 128.247L58.2469 151.494L35 128.247Z" fill="#793B75"/>
<path d="M0 168.247L23.2469 145L46.4939 168.247L23.2469 191.494L0 168.247Z" fill="#954278"/>
<path d="M70 163.247L93.2469 140L116.494 163.247L93.2469 186.494L70 163.247Z" fill="#CC568D"/>
<path d="M35 203.247L58.2469 180L81.4939 203.247L58.2469 226.494L35 203.247Z" fill="#CC568D"/>
<path d="M105 198.247L128.247 175L151.494 198.247L128.247 221.494L105 198.247Z" fill="#F3822D"/>
<path d="M70 238.247L93.2469 215L116.494 238.247L93.2469 261.494L70 238.247Z" fill="#F3822D"/>
</svg>
