<svg width="42" height="42" viewBox="0 0 42 42" fill="none" xmlns="http://www.w3.org/2000/svg">
<path fill-rule="evenodd" clip-rule="evenodd" d="M6.062 35.938C8.6275 38.5 12.7505 38.5 21 38.5C29.2495 38.5 33.3743 38.5 35.9362 35.9362C38.5 33.376 38.5 29.2495 38.5 21C38.5 12.7505 38.5 8.62575 35.9362 6.062C33.376 3.5 29.2495 3.5 21 3.5C12.7505 3.5 8.62575 3.5 6.062 6.062C3.5 8.6275 3.5 12.7505 3.5 21C3.5 29.2495 3.5 33.376 6.062 35.938ZM32.8125 28C32.8125 28.3481 32.6742 28.6819 32.4281 28.9281C32.1819 29.1742 31.8481 29.3125 31.5 29.3125H10.5C10.1519 29.3125 9.81806 29.1742 9.57192 28.9281C9.32578 28.6819 9.1875 28.3481 9.1875 28C9.1875 27.6519 9.32578 27.3181 9.57192 27.0719C9.81806 26.8258 10.1519 26.6875 10.5 26.6875H31.5C31.8481 26.6875 32.1819 26.8258 32.4281 27.0719C32.6742 27.3181 32.8125 27.6519 32.8125 28ZM31.5 22.3125C31.8481 22.3125 32.1819 22.1742 32.4281 21.9281C32.6742 21.6819 32.8125 21.3481 32.8125 21C32.8125 20.6519 32.6742 20.3181 32.4281 20.0719C32.1819 19.8258 31.8481 19.6875 31.5 19.6875H10.5C10.1519 19.6875 9.81806 19.8258 9.57192 20.0719C9.32578 20.3181 9.1875 20.6519 9.1875 21C9.1875 21.3481 9.32578 21.6819 9.57192 21.9281C9.81806 22.1742 10.1519 22.3125 10.5 22.3125H31.5ZM32.8125 14C32.8125 14.3481 32.6742 14.6819 32.4281 14.9281C32.1819 15.1742 31.8481 15.3125 31.5 15.3125H10.5C10.1519 15.3125 9.81806 15.1742 9.57192 14.9281C9.32578 14.6819 9.1875 14.3481 9.1875 14C9.1875 13.6519 9.32578 13.3181 9.57192 13.0719C9.81806 12.8258 10.1519 12.6875 10.5 12.6875H31.5C31.8481 12.6875 32.1819 12.8258 32.4281 13.0719C32.6742 13.3181 32.8125 13.6519 32.8125 14Z" fill="#572C6B"/>
</svg>
