<svg width="48" height="48" viewBox="0 0 48 48" fill="none" xmlns="http://www.w3.org/2000/svg">
<path d="M28.5 16.5C28.5 14.0147 26.4853 12 24 12C21.5147 12 19.5 14.0147 19.5 16.5C19.5 18.9853 21.5147 21 24 21C26.4853 21 28.5 18.9853 28.5 16.5ZM31.5 16.5C31.5 20.6421 28.1421 24 24 24C19.8579 24 16.5 20.6421 16.5 16.5C16.5 12.3579 19.8579 9 24 9C28.1421 9 31.5 12.3579 31.5 16.5Z" fill="#464646"/>
<path d="M23.9996 1.5C34.014 1.5 42.328 11.5452 37.3795 23.0918C35.0979 28.4155 32.0667 34.0948 29.6188 38.4258C28.3927 40.595 27.3067 42.4335 26.528 43.7314C26.1385 44.3805 25.8272 44.8966 25.611 45.249C25.5029 45.4252 25.4191 45.5611 25.3619 45.6533C25.3334 45.6994 25.3094 45.7349 25.2946 45.7588C25.2874 45.7702 25.2807 45.7791 25.277 45.7852L25.274 45.791L25.2711 45.7939C24.997 46.2325 24.5168 46.5 23.9996 46.5C23.4826 46.4999 23.0022 46.2324 22.7281 45.7939L22.7252 45.791L22.7223 45.7852C22.7185 45.7791 22.7119 45.7704 22.7047 45.7588C22.6899 45.7351 22.6686 45.699 22.6403 45.6533C22.5832 45.5613 22.4991 45.4248 22.3912 45.249C22.175 44.8966 21.8608 44.3805 21.4713 43.7314C20.6926 42.4336 19.6065 40.5948 18.3805 38.4258C15.9327 34.0951 12.9042 28.4151 10.6227 23.0918C5.67421 11.5454 13.9854 1.50024 23.9996 1.5ZM23.9996 4.5C16.0143 4.50024 9.32855 12.4551 13.3795 21.9082C15.5979 27.0844 18.5668 32.6553 20.9938 36.9492C22.1816 39.0507 23.2349 40.8386 23.9996 42.1143C24.7643 40.8386 25.8177 39.0508 27.0055 36.9492C29.4325 32.6553 32.4043 27.0844 34.6227 21.9082C38.673 12.4553 31.9849 4.5 23.9996 4.5Z" fill="#464646"/>
</svg>
