<svg width="29" height="30" viewBox="0 0 29 30" fill="none" xmlns="http://www.w3.org/2000/svg">
<path d="M16.9329 10.3217C16.9329 8.84515 15.7359 7.64813 14.2593 7.64813C12.7827 7.64813 11.5857 8.84515 11.5857 10.3217C11.5857 11.7983 12.7827 12.9954 14.2593 12.9954C15.7359 12.9954 16.9329 11.7983 16.9329 10.3217ZM18.7153 10.3217C18.7153 12.7827 16.7203 14.7778 14.2593 14.7778C11.7983 14.7778 9.80325 12.7827 9.80325 10.3217C9.80325 7.86075 11.7983 5.86572 14.2593 5.86572C16.7203 5.86572 18.7153 7.86075 18.7153 10.3217Z" fill="#808080"/>
<path d="M14.2591 1.40967C20.209 1.40967 25.1486 7.37789 22.2085 14.2381C20.8529 17.4011 19.052 20.7754 17.5976 23.3486C16.8691 24.6374 16.2239 25.7298 15.7612 26.5009C15.5298 26.8865 15.3449 27.1931 15.2164 27.4025C15.1522 27.5072 15.1024 27.5879 15.0684 27.6427C15.0515 27.6701 15.0372 27.6912 15.0284 27.7054C15.0242 27.7122 15.0202 27.7175 15.018 27.7211L15.0162 27.7245L15.0145 27.7263C14.8516 27.9869 14.5663 28.1458 14.2591 28.1458C13.9519 28.1457 13.6664 27.9868 13.5036 27.7263L13.5019 27.7245L13.5001 27.7211C13.4979 27.7174 13.494 27.7123 13.4897 27.7054C13.4809 27.6913 13.4682 27.6699 13.4514 27.6427C13.4175 27.588 13.3675 27.507 13.3034 27.4025C13.175 27.1931 12.9883 26.8865 12.7569 26.5009C12.2942 25.7298 11.6489 24.6373 10.9205 23.3486C9.46621 20.7756 7.66686 17.4009 6.31133 14.2381C3.37126 7.37798 8.30923 1.40981 14.2591 1.40967ZM14.2591 3.19208C9.5147 3.19222 5.54243 7.91851 7.94926 13.5349C9.26726 16.6103 11.0312 19.9201 12.4732 22.4713C13.1789 23.7199 13.8047 24.7821 14.2591 25.5401C14.7134 24.7821 15.3392 23.7199 16.0449 22.4713C17.4869 19.9201 19.2526 16.6103 20.5706 13.5349C22.977 7.91863 19.0034 3.19208 14.2591 3.19208Z" fill="#808080"/>
</svg>
