<svg width="48" height="48" viewBox="0 0 48 48" fill="none" xmlns="http://www.w3.org/2000/svg">
<path d="M32.2944 27.9095C32.2944 29.4215 32.7246 30.0245 33.8496 30.0245C36.357 30.0245 37.9536 26.8295 37.9536 21.5159C37.9536 13.3943 32.0352 9.50635 24.6462 9.50635C17.0448 9.50635 10.131 14.6039 10.131 24.2375C10.131 33.4391 16.179 38.4503 25.467 38.4503C28.6206 38.4503 30.7374 38.1047 33.9756 37.0247L34.6704 39.9173C31.4736 40.9559 28.0572 41.2565 25.4238 41.2565C13.2414 41.2565 6.7164 34.5605 6.7164 24.2357C6.7164 13.8245 14.2782 6.73975 24.6894 6.73975C35.5326 6.73975 41.2764 13.2197 41.2764 21.1685C41.2764 27.9077 39.1614 33.0485 32.5086 33.0485C29.4828 33.0485 27.4974 31.8389 27.2382 29.1587C26.4606 32.1395 24.387 33.0485 21.5772 33.0485C17.8188 33.0485 14.6652 30.1523 14.6652 24.3221C14.6652 18.4469 17.4318 14.8181 22.3998 14.8181C25.035 14.8181 26.6766 15.8549 27.4074 17.4965L28.662 15.2069H32.2908V27.9095H32.2944ZM26.9826 22.2071C26.9826 19.8329 25.2096 18.8375 23.7408 18.8375C22.1424 18.8375 20.373 20.1317 20.373 23.9351C20.373 26.9591 21.7122 28.6439 23.7408 28.6439C25.1664 28.6439 26.9826 27.7367 26.9826 25.2311V22.2071Z" fill="#464646"/>
</svg>
