<svg width="16" height="16" viewBox="0 0 16 16" fill="none" xmlns="http://www.w3.org/2000/svg">
<path d="M10.6667 4.66667C10.6667 3.40933 10.6667 2.78133 10.276 2.39067C9.88534 2 9.25734 2 8.00001 2C6.74268 2 6.11468 2 5.72401 2.39067C5.33334 2.78133 5.33334 3.40933 5.33334 4.66667M1.33334 9.33333C1.33334 7.46067 1.33334 6.52467 1.78268 5.852C1.97728 5.5607 2.22738 5.31061 2.51868 5.116C3.19134 4.66667 4.12668 4.66667 6.00001 4.66667H10C11.8727 4.66667 12.8087 4.66667 13.4813 5.116C13.7726 5.31061 14.0227 5.5607 14.2173 5.852C14.6667 6.52467 14.6667 7.46 14.6667 9.33333C14.6667 11.2067 14.6667 12.142 14.2173 12.8147C14.0227 13.106 13.7726 13.3561 13.4813 13.5507C12.8087 14 11.8733 14 10 14H6.00001C4.12734 14 3.19134 14 2.51868 13.5507C2.22738 13.3561 1.97728 13.106 1.78268 12.8147C1.33334 12.142 1.33334 11.2067 1.33334 9.33333Z" stroke="#572C6B" stroke-width="1.5" stroke-linecap="round" stroke-linejoin="round"/>
<path d="M4 7.33331L4.43467 7.46798C6.75852 8.1781 9.24148 8.1781 11.5653 7.46798L12 7.33331M8 7.99998V9.33331" stroke="#572C6B" stroke-width="1.5" stroke-linecap="round" stroke-linejoin="round"/>
</svg>
