<svg width="29" height="29" viewBox="0 0 29 29" fill="none" xmlns="http://www.w3.org/2000/svg">
<path d="M18.0618 9.50608C18.0618 7.71322 18.0618 6.81774 17.5047 6.26067C16.9476 5.70361 16.0522 5.70361 14.2593 5.70361C12.4664 5.70361 11.5709 5.70361 11.0139 6.26067C10.4568 6.81774 10.4568 7.71322 10.4568 9.50608M4.75311 16.1604C4.75311 13.4901 4.75311 12.1555 5.39383 11.1963C5.67132 10.7809 6.02794 10.4243 6.44331 10.1468C7.40248 9.50608 8.7362 9.50608 11.4074 9.50608H17.1111C19.7814 9.50608 21.1161 9.50608 22.0753 10.1468C22.4906 10.4243 22.8472 10.7809 23.1247 11.1963C23.7655 12.1555 23.7655 13.4892 23.7655 16.1604C23.7655 18.8316 23.7655 20.1654 23.1247 21.1245C22.8472 21.5399 22.4906 21.8965 22.0753 22.174C21.1161 22.8147 19.7824 22.8147 17.1111 22.8147H11.4074C8.73715 22.8147 7.40248 22.8147 6.44331 22.174C6.02794 21.8965 5.67132 21.5399 5.39383 21.1245C4.75311 20.1654 4.75311 18.8316 4.75311 16.1604Z" stroke="#808080" stroke-width="1.5" stroke-linecap="round" stroke-linejoin="round"/>
<path d="M8.55557 13.3086L9.17537 13.5006C12.489 14.5132 16.0295 14.5132 19.3432 13.5006L19.963 13.3086M14.2593 14.2592V16.1604" stroke="#808080" stroke-width="1.5" stroke-linecap="round" stroke-linejoin="round"/>
</svg>
