<svg width="28" height="29" viewBox="0 0 28 29" fill="none" xmlns="http://www.w3.org/2000/svg">
<path d="M13.2994 2.48768L2.57483 13.2123C2.35611 13.431 2.23325 13.7277 2.23325 14.0371C2.23325 14.3465 2.35611 14.6431 2.57483 14.8619L13.3 25.5871C13.5188 25.8058 13.8155 25.9287 14.1248 25.9287C14.4342 25.9287 14.7309 25.8058 14.9497 25.5871L25.6742 14.8625C25.893 14.6437 26.0158 14.347 26.0158 14.0377C26.0158 13.7283 25.893 13.4316 25.6742 13.2128L14.9491 2.48709C14.7303 2.26838 14.4336 2.14551 14.1242 2.14551C13.8149 2.14551 13.5182 2.26838 13.2994 2.48709V2.48768Z" stroke="#808080" stroke-width="2" stroke-linejoin="round"/>
<path d="M10.5 14.0371H17.5M14 10.5371V17.5371" stroke="#808080" stroke-width="2" stroke-linecap="round"/>
</svg>
