<svg width="42" height="42" viewBox="0 0 42 42" fill="none" xmlns="http://www.w3.org/2000/svg">
<path fill-rule="evenodd" clip-rule="evenodd" d="M21 38.5C12.7505 38.5 8.62575 38.5 6.062 35.9362C3.5 33.376 3.5 29.2495 3.5 21C3.5 12.7505 3.5 8.62575 6.062 6.062C8.6275 3.5 12.7505 3.5 21 3.5C29.2495 3.5 33.3742 3.5 35.9362 6.062C38.5 8.6275 38.5 12.7505 38.5 21C38.5 29.2495 38.5 33.3742 35.9362 35.9362C33.376 38.5 29.2495 38.5 21 38.5ZM15.6975 15.6975C15.9436 15.4517 16.2772 15.3137 16.625 15.3137C16.9728 15.3137 17.3064 15.4517 17.5525 15.6975L21 19.145L24.4475 15.6975C24.6963 15.4657 25.0254 15.3394 25.3654 15.3454C25.7054 15.3514 26.0299 15.4892 26.2703 15.7297C26.5108 15.9701 26.6486 16.2946 26.6546 16.6346C26.6606 16.9746 26.5343 17.3037 26.3025 17.5525L22.855 21L26.3025 24.4475C26.4315 24.5677 26.5349 24.7126 26.6066 24.8736C26.6784 25.0346 26.7169 25.2084 26.72 25.3846C26.7231 25.5608 26.6907 25.7359 26.6247 25.8993C26.5587 26.0627 26.4604 26.2112 26.3358 26.3358C26.2112 26.4604 26.0627 26.5587 25.8993 26.6247C25.7359 26.6907 25.5608 26.7231 25.3846 26.72C25.2084 26.7169 25.0346 26.6784 24.8736 26.6066C24.7126 26.5349 24.5677 26.4315 24.4475 26.3025L21 22.855L17.5525 26.3025C17.4323 26.4315 17.2874 26.5349 17.1264 26.6066C16.9654 26.6784 16.7916 26.7169 16.6154 26.72C16.4392 26.7231 16.2641 26.6907 16.1007 26.6247C15.9373 26.5587 15.7888 26.4604 15.6642 26.3358C15.5396 26.2112 15.4413 26.0627 15.3753 25.8993C15.3093 25.7359 15.2769 25.5608 15.28 25.3846C15.2831 25.2084 15.3216 25.0346 15.3934 24.8736C15.4651 24.7126 15.5685 24.5677 15.6975 24.4475L19.145 21L15.6975 17.5525C15.4517 17.3064 15.3137 16.9728 15.3137 16.625C15.3137 16.2772 15.4517 15.9436 15.6975 15.6975Z" fill="#572C6B"/>
</svg>
