<svg width="22" height="22" viewBox="0 0 22 22" fill="none" xmlns="http://www.w3.org/2000/svg">
<path fill-rule="evenodd" clip-rule="evenodd" d="M3.06295 0.231174H6.81395C6.96651 0.231174 7.11543 0.277695 7.24086 0.36453C7.36629 0.451365 7.46225 0.574384 7.51595 0.717174L8.97195 4.58717C9.01994 4.71515 9.03204 4.85382 9.00695 4.98817L8.27695 8.90017C9.17395 11.0082 10.655 12.4252 13.11 13.6962L16.975 12.9462C17.1123 12.9197 17.2543 12.9322 17.385 12.9822L21.267 14.4622C21.4089 14.5162 21.531 14.6121 21.6173 14.7371C21.7035 14.8621 21.7498 15.0103 21.75 15.1622V18.7462C21.75 20.3722 20.318 21.6912 18.642 21.3262C15.589 20.6622 9.93195 18.9732 5.96995 15.0112C2.17395 11.2162 0.901952 5.97417 0.474952 3.14117C0.229952 1.52317 1.52695 0.231174 3.06295 0.231174Z" fill="#572C6B"/>
</svg>
