<svg width="35" height="35" viewBox="0 0 35 35" fill="none" xmlns="http://www.w3.org/2000/svg">
<path d="M19.6185 0C11.3554 0 4.65602 6.69818 4.65602 14.9613C4.65602 17.8973 5.50144 20.636 6.9626 22.9468C6.95187 22.9515 6.94134 22.9557 6.93058 22.9606L0.420288 29.4697L5.95058 35L12.6953 28.2541C12.6933 28.2446 12.6906 28.2351 12.6885 28.2255C14.7604 29.3103 17.1179 29.9237 19.6185 29.9237C27.8817 29.9237 34.5798 23.2245 34.5798 14.9613C34.5797 6.69818 27.8816 0 19.6185 0ZM19.6185 6.64641C24.2105 6.64641 27.9322 10.3692 27.9322 14.9613C27.9322 19.5533 24.2105 23.2761 19.6185 23.2761C15.0264 23.2761 11.3036 19.5533 11.3036 14.9613C11.3036 10.3692 15.0264 6.64641 19.6185 6.64641Z" fill="white"/>
</svg>
