<svg width="40" height="40" viewBox="0 0 40 40" fill="none" xmlns="http://www.w3.org/2000/svg">
<path fill-rule="evenodd" clip-rule="evenodd" d="M30.805 32.9833V32.98L30.835 32.9083L35.8333 7.70831V7.62831C35.8333 6.99997 35.6 6.45164 35.0967 6.12331C34.655 5.83497 34.1467 5.81497 33.79 5.84164C33.458 5.87193 33.1305 5.93901 32.8133 6.04164C32.678 6.08482 32.5445 6.13376 32.4133 6.18831L32.3917 6.19664L4.52499 17.1283L4.51666 17.1316C4.43128 17.1588 4.34824 17.1928 4.26833 17.2333C4.07025 17.3226 3.88012 17.4285 3.69999 17.55C3.34166 17.7966 2.65999 18.3766 2.77499 19.2966C2.86999 20.06 3.39499 20.5433 3.74999 20.795C3.95906 20.9426 4.18444 21.0656 4.42166 21.1616L4.47499 21.185L4.49166 21.19L4.50333 21.195L9.37999 22.8366C9.36221 23.1433 9.39388 23.4516 9.47499 23.7616L11.9167 33.0266C12.05 33.5317 12.3383 33.9822 12.7409 34.3151C13.1435 34.6479 13.6402 34.8462 14.1613 34.8823C14.6824 34.9183 15.2017 34.7902 15.6463 34.516C16.0908 34.2418 16.4384 33.8352 16.64 33.3533L20.4533 29.2766L27.0017 34.2966L27.095 34.3366C27.69 34.5966 28.245 34.6783 28.7533 34.61C29.2617 34.54 29.665 34.3266 29.9683 34.085C30.3193 33.8006 30.5989 33.4382 30.785 33.0266L30.7983 32.9983L30.8033 32.9883L30.805 32.9833ZM11.8917 23.125C11.8646 23.0222 11.871 22.9134 11.91 22.8145C11.949 22.7156 12.0184 22.6317 12.1083 22.575L28.6433 12.075C28.6433 12.075 29.6167 11.4833 29.5817 12.075C29.5817 12.075 29.755 12.1783 29.2333 12.6633C28.74 13.125 17.4483 24.0266 16.305 25.13C16.2429 25.1929 16.1987 25.2711 16.1767 25.3566L14.3333 32.39L11.8917 23.125Z" fill="#D9D9D9"/>
</svg>
