<svg width="33" height="40" viewBox="0 0 33 40" fill="none" xmlns="http://www.w3.org/2000/svg">
<path d="M20.8833 26.3795V30.8538C20.8833 31.801 20.6026 32.2746 20.0412 32.2746C19.7101 32.2746 19.3862 32.119 19.0695 31.808V25.4252C19.3862 25.1142 19.7101 24.9587 20.0412 24.9587C20.6026 24.9587 20.8833 25.4323 20.8833 26.3795ZM28.1815 26.4007V27.3761H26.2382V26.4007C26.2382 25.4394 26.5621 24.9587 27.2099 24.9587C27.8576 24.9587 28.1815 25.4394 28.1815 26.4007ZM7.32321 21.7779H9.6336V19.7846H2.89676V21.7779H5.16397V33.8438H7.32321V21.7779ZM13.5418 33.8438H15.4636V23.3683H13.5418V31.3839C13.11 31.9777 12.6997 32.2746 12.3111 32.2746C12.052 32.2746 11.9008 32.1261 11.8576 31.8292C11.8432 31.7868 11.836 31.5394 11.836 31.0871V23.3683H9.9143V31.6596C9.9143 32.3523 9.97188 32.8683 10.087 33.2076C10.2598 33.7307 10.6772 33.9922 11.3394 33.9922C12.0304 33.9922 12.7645 33.561 13.5418 32.6987V33.8438ZM22.805 30.7054V26.5279C22.805 25.4959 22.7402 24.7961 22.6107 24.4286C22.3659 23.6369 21.8549 23.2411 21.0776 23.2411C20.3578 23.2411 19.6885 23.6228 19.0695 24.3862V19.7846H17.1478V33.8438H19.0695V32.8259C19.7173 33.6034 20.3866 33.9922 21.0776 33.9922C21.8549 33.9922 22.3659 33.6034 22.6107 32.8259C22.7402 32.4442 22.805 31.7374 22.805 30.7054ZM30.1032 30.4933V30.2176H28.1383C28.1383 30.9386 28.1239 31.3698 28.0951 31.5112C27.9944 32.0201 27.7065 32.2746 27.2314 32.2746C26.5693 32.2746 26.2382 31.7868 26.2382 30.8114V28.9665H30.1032V26.7824C30.1032 25.6656 29.9089 24.8456 29.5202 24.3225C28.9588 23.6016 28.1959 23.2411 27.2314 23.2411C26.2526 23.2411 25.4825 23.6016 24.9211 24.3225C24.518 24.8456 24.3165 25.6656 24.3165 26.7824V30.4509C24.3165 31.5677 24.5252 32.3876 24.9426 32.9107C25.504 33.6317 26.2814 33.9922 27.2746 33.9922C28.3111 33.9922 29.0884 33.6176 29.6066 32.8683C29.8657 32.4866 30.0169 32.1049 30.0601 31.7232C30.0888 31.596 30.1032 31.186 30.1032 30.4933ZM16.975 11.1328V6.67969C16.975 5.70424 16.6655 5.21652 16.0466 5.21652C15.4276 5.21652 15.1181 5.70424 15.1181 6.67969V11.1328C15.1181 12.1224 15.4276 12.6172 16.0466 12.6172C16.6655 12.6172 16.975 12.1224 16.975 11.1328ZM32.5 27.058C32.5 30.3661 32.3129 32.84 31.9386 34.4799C31.7371 35.314 31.3196 36.0138 30.6862 36.5792C30.0529 37.1447 29.3187 37.4699 28.4838 37.5547C25.8351 37.8516 21.8405 38 16.5 38C11.1595 38 7.16487 37.8516 4.51619 37.5547C3.68129 37.4699 2.94354 37.1447 2.30297 36.5792C1.66239 36.0138 1.24854 35.314 1.0614 34.4799C0.687134 32.8966 0.5 30.4226 0.5 27.058C0.5 23.75 0.687134 21.276 1.0614 19.6362C1.26293 18.8021 1.68039 18.1023 2.31377 17.5368C2.94714 16.9714 3.68848 16.6391 4.53779 16.5402C7.17206 16.2574 11.1595 16.1161 16.5 16.1161C21.8405 16.1161 25.8351 16.2574 28.4838 16.5402C29.3187 16.6391 30.0565 16.9714 30.697 17.5368C31.3376 18.1023 31.7515 18.8021 31.9386 19.6362C32.3129 21.2195 32.5 23.6935 32.5 27.058ZM10.9507 0H13.1532L10.5405 8.46094V14.2076H8.38124V8.46094C8.17971 7.41481 7.74067 5.91629 7.0641 3.9654C6.53149 2.5093 6.06365 1.1875 5.66059 0H7.94939L9.48246 5.57701L10.9507 0ZM18.9399 7.06138V10.7723C18.9399 11.9174 18.7384 12.7515 18.3354 13.2746C17.7883 13.9955 17.0254 14.356 16.0466 14.356C15.0821 14.356 14.3264 13.9955 13.7794 13.2746C13.3763 12.7374 13.1748 11.9033 13.1748 10.7723V7.06138C13.1748 5.93043 13.3763 5.10342 13.7794 4.58036C14.3264 3.85937 15.0821 3.49888 16.0466 3.49888C17.0254 3.49888 17.7883 3.85937 18.3354 4.58036C18.7384 5.10342 18.9399 5.93043 18.9399 7.06138ZM26.1734 3.62612V14.2076H24.2085V13.0413C23.4456 13.9178 22.7042 14.356 21.9845 14.356C21.3223 14.356 20.8977 14.0945 20.7105 13.5714C20.5954 13.2321 20.5378 12.702 20.5378 11.981V3.62612H22.5027V11.4085C22.5027 11.875 22.5099 12.1224 22.5243 12.1507C22.5675 12.4617 22.7186 12.6172 22.9777 12.6172C23.3664 12.6172 23.7767 12.3132 24.2085 11.7054V3.62612H26.1734Z" fill="#D9D9D9"/>
</svg>
