<svg width="229" height="122" viewBox="0 0 229 122" fill="none" xmlns="http://www.w3.org/2000/svg">
<path d="M210.828 86.6304C208.941 86.6304 207.165 86.3583 205.502 85.814C203.871 85.2378 202.399 84.3894 201.088 83.269C199.808 82.1165 198.721 80.6439 197.825 78.8511L203.295 75.4417C204.223 76.9783 205.358 78.1468 206.702 78.9471C208.045 79.7475 209.548 80.1476 211.212 80.1476C212.651 80.1476 213.739 79.8435 214.474 79.2353C215.21 78.627 215.578 77.8267 215.578 76.8343C215.578 76.194 215.402 75.6498 215.05 75.2016C214.73 74.7214 214.139 74.2732 213.275 73.857C212.411 73.4408 211.164 73.0407 209.532 72.6565C206.878 72.0162 204.766 71.2159 203.199 70.2555C201.664 69.2951 200.576 68.1586 199.936 66.846C199.297 65.5015 198.977 64.0128 198.977 62.3801C198.977 60.4593 199.441 58.7626 200.368 57.29C201.328 55.7854 202.687 54.6009 204.447 53.7365C206.206 52.8721 208.301 52.4399 210.732 52.4399C213.483 52.4399 215.802 52.9842 217.689 54.0726C219.608 55.1611 221.144 56.5857 222.295 58.3464L216.825 62.14C215.994 61.0516 214.986 60.2673 213.803 59.787C212.651 59.3068 211.5 59.0667 210.348 59.0667C208.973 59.0667 207.901 59.3389 207.133 59.8831C206.398 60.3953 206.03 61.1316 206.03 62.092C206.03 62.9884 206.414 63.7407 207.181 64.349C207.949 64.9252 209.452 65.4694 211.692 65.9817C214.378 66.6219 216.538 67.4063 218.169 68.3347C219.8 69.2631 220.984 70.3995 221.719 71.7441C222.455 73.0887 222.823 74.7053 222.823 76.5941C222.823 78.515 222.327 80.2277 221.336 81.7323C220.376 83.237 219.001 84.4375 217.209 85.3338C215.418 86.1982 213.291 86.6304 210.828 86.6304Z" fill="#F3822D"/>
<path d="M168.947 85.8141V53.1123H180.654C183.341 53.1123 185.5 53.4484 187.131 54.1207C188.762 54.793 189.946 55.8014 190.682 57.146C191.449 58.4586 191.833 60.1073 191.833 62.0921C191.833 63.6608 191.481 65.0534 190.778 66.2699C190.106 67.4544 189.178 68.3828 187.995 69.055C186.811 69.7273 185.468 70.0635 183.964 70.0635L184.108 68.5268C185.996 68.5268 187.563 68.879 188.81 69.5833C190.058 70.2876 191.001 71.248 191.641 72.4645C192.281 73.681 192.601 75.0576 192.601 76.5942C192.601 79.6675 191.657 81.9725 189.77 83.5091C187.915 85.0458 185.164 85.8141 181.517 85.8141H168.947ZM175.952 56.7138V81.8765L173.457 79.0913H181.421C182.669 79.0913 183.644 78.7872 184.348 78.1789C185.084 77.5706 185.452 76.7383 185.452 75.6818C185.452 74.5294 185.1 73.665 184.396 73.0887C183.724 72.5125 182.765 72.2244 181.517 72.2244H173.457V66.1738H180.798C182.077 66.1738 183.037 65.9177 183.676 65.4055C184.316 64.8933 184.636 64.0929 184.636 63.0045C184.636 62.0121 184.3 61.2437 183.628 60.6995C182.989 60.1233 182.045 59.8351 180.798 59.8351H173.649L175.952 56.7138Z" fill="#F3822D"/>
<path d="M129.066 69.4873C129.066 67.0223 129.466 64.7653 130.266 62.7164C131.097 60.6356 132.265 58.8428 133.768 57.3382C135.272 55.8015 137.047 54.617 139.094 53.7847C141.141 52.9523 143.412 52.5361 145.907 52.5361C148.338 52.5361 150.577 52.9523 152.624 53.7847C154.704 54.617 156.495 55.8015 157.998 57.3382C159.502 58.8428 160.653 60.6356 161.453 62.7164C162.284 64.7653 162.7 67.0223 162.7 69.4873C162.7 71.9523 162.284 74.2253 161.453 76.3062C160.653 78.355 159.502 80.1478 157.998 81.6844C156.495 83.1891 154.704 84.3576 152.624 85.1899C150.577 85.9903 148.338 86.3904 145.907 86.3904C143.412 86.3904 141.141 85.9903 139.094 85.1899C137.047 84.3576 135.272 83.1891 133.768 81.6844C132.265 80.1478 131.097 78.355 130.266 76.3062C129.466 74.2253 129.066 71.9523 129.066 69.4873ZM136.215 69.4873C136.215 71.5041 136.631 73.2649 137.463 74.7695C138.294 76.2742 139.43 77.4427 140.869 78.275C142.341 79.1074 144.02 79.5235 145.907 79.5235C147.762 79.5235 149.41 79.1074 150.849 78.275C152.32 77.4427 153.472 76.2742 154.304 74.7695C155.135 73.2649 155.551 71.4881 155.551 69.4393C155.551 67.4224 155.135 65.6617 154.304 64.157C153.472 62.6524 152.32 61.4999 150.849 60.6996C149.41 59.8672 147.762 59.4511 145.907 59.4511C144.02 59.4511 142.341 59.8672 140.869 60.6996C139.43 61.5319 138.294 62.7004 137.463 64.2051C136.631 65.6777 136.215 67.4384 136.215 69.4873Z" fill="#F3822D"/>
<path d="M112.037 79.7155C113.348 79.7155 114.356 79.3314 115.06 78.5631C115.763 77.7947 116.115 76.7063 116.115 75.2977V53.1123H123.168V75.2016C123.168 77.4106 122.753 79.3634 121.921 81.0601C121.089 82.7568 119.842 84.0854 118.178 85.0458C116.547 86.0062 114.5 86.4864 112.037 86.4864C109.606 86.4864 107.559 86.0382 105.896 85.1418C104.232 84.2455 102.985 82.9649 102.153 81.3002C101.321 79.6355 100.906 77.6827 100.906 75.4417V73.5689H107.959V75.2977C107.959 76.7703 108.311 77.8748 109.014 78.6111C109.75 79.3474 110.758 79.7155 112.037 79.7155Z" fill="#F3822D"/>
<path d="M222.667 46.2419L204.77 21.9916L207.793 21.1753V46.2419H200.788V13.54H207.169L224.682 37.3581L221.995 37.8383V13.54H229V46.2419H222.667Z" fill="#A97BBE"/>
<path d="M179.333 33.1803V26.5055H192.768V33.1803H179.333ZM179.189 20.2149L181.636 17.3817V42.4002L178.949 39.567H195.406V46.2419H174.631V13.54H195.406V20.2149H179.189Z" fill="#A97BBE"/>
<path d="M170.259 46.2419H150.396V13.54H157.401V42.1121L155.625 39.471H170.259V46.2419Z" fill="#A97BBE"/>
<path d="M144.176 46.2419H137.171V13.54H144.176V46.2419Z" fill="#A97BBE"/>
<path d="M117.123 46.818C113.828 46.818 110.917 46.0977 108.391 44.6571C105.896 43.2165 103.96 41.2476 102.585 38.7506C101.21 36.2215 100.522 33.3563 100.522 30.155C100.522 27.6259 100.922 25.3209 101.721 23.24C102.553 21.1271 103.704 19.3184 105.176 17.8137C106.647 16.2771 108.391 15.0926 110.406 14.2602C112.453 13.4279 114.692 13.0117 117.123 13.0117C120.865 13.0117 123.952 13.8121 126.383 15.4127C128.846 16.9814 130.749 19.2383 132.093 22.1836L125.711 24.7287C124.656 22.9999 123.424 21.7514 122.017 20.9831C120.609 20.1827 118.978 19.7826 117.123 19.7826C115.3 19.7826 113.668 20.2148 112.229 21.0791C110.822 21.9115 109.702 23.096 108.87 24.6326C108.071 26.1693 107.671 28.0101 107.671 30.155C107.671 32.1398 108.071 33.9005 108.87 35.4372C109.702 36.9418 110.822 38.1263 112.229 38.9907C113.668 39.823 115.3 40.2392 117.123 40.2392C118.818 40.2392 120.322 39.9191 121.633 39.2788C122.944 38.6385 124 37.7262 124.8 36.5417C125.599 35.3251 126.047 33.9165 126.143 32.3159L128.158 34.7649H116.595V28.4743H132.524C132.652 28.9865 132.748 29.5307 132.812 30.1069C132.876 30.6832 132.908 31.2594 132.908 31.8357C132.908 34.0766 132.477 36.1255 131.613 37.9823C130.781 39.807 129.63 41.3917 128.158 42.7363C126.719 44.0488 125.056 45.0573 123.168 45.7616C121.281 46.4659 119.266 46.818 117.123 46.818Z" fill="#A97BBE"/>
<path d="M168.51 121.829H166.648V112.14H168.51V121.829Z" fill="#A97BBE"/>
<path d="M160.709 122C159.733 122 158.875 121.786 158.136 121.359C157.397 120.923 156.823 120.33 156.416 119.581C156.008 118.831 155.804 117.982 155.804 117.034C155.804 116.294 155.923 115.616 156.16 114.999C156.406 114.383 156.747 113.852 157.183 113.406C157.629 112.95 158.15 112.599 158.747 112.353C159.344 112.106 159.998 111.983 160.709 111.983C161.818 111.983 162.732 112.22 163.453 112.694C164.173 113.159 164.737 113.804 165.144 114.629L163.41 115.284C163.059 114.734 162.661 114.35 162.216 114.131C161.78 113.904 161.278 113.79 160.709 113.79C160.131 113.79 159.614 113.927 159.159 114.203C158.714 114.468 158.359 114.843 158.093 115.327C157.837 115.81 157.709 116.379 157.709 117.034C157.709 117.66 157.837 118.215 158.093 118.699C158.359 119.182 158.714 119.562 159.159 119.837C159.614 120.102 160.131 120.235 160.709 120.235C161.259 120.235 161.747 120.126 162.173 119.908C162.609 119.68 162.955 119.372 163.211 118.983C163.467 118.585 163.604 118.125 163.623 117.603L164.092 118.357H160.581V116.664H165.301C165.339 116.797 165.367 116.944 165.386 117.105C165.405 117.257 165.415 117.409 165.415 117.56C165.415 118.205 165.291 118.798 165.045 119.339C164.799 119.88 164.457 120.349 164.021 120.748C163.595 121.146 163.097 121.454 162.529 121.672C161.969 121.891 161.363 122 160.709 122Z" fill="#A97BBE"/>
<path d="M154.502 121.829H152.64V112.14H154.502V121.829Z" fill="#A97BBE"/>
<path d="M151.36 121.829H145.559V112.14H147.422V120.634L147.009 120.051H151.36V121.829Z" fill="#A97BBE"/>
<path d="M139.569 121.829V113.15H141.446V121.829H139.569ZM136.655 113.918V112.14H144.445V113.918H136.655Z" fill="#A97BBE"/>
<path d="M133.886 121.829L128.285 114.345L129.138 114.103V121.829H127.275V112.14H128.939L134.412 119.453L133.687 119.553V112.14H135.549V121.829H133.886Z" fill="#A97BBE"/>
<path d="M120.892 117.859V116.081H124.844V117.859H120.892ZM120.849 113.904L121.446 113.193V120.705L120.778 120.051H125.654V121.829H119.584V112.14H125.654V113.904H120.849Z" fill="#A97BBE"/>
<path d="M113.645 122C112.669 122 111.811 121.786 111.072 121.359C110.333 120.923 109.759 120.33 109.352 119.581C108.944 118.831 108.741 117.982 108.741 117.034C108.741 116.294 108.859 115.616 109.096 114.999C109.342 114.383 109.684 113.852 110.12 113.406C110.565 112.95 111.086 112.599 111.683 112.353C112.28 112.106 112.934 111.983 113.645 111.983C114.754 111.983 115.669 112.22 116.389 112.694C117.109 113.159 117.673 113.804 118.081 114.629L116.346 115.284C115.996 114.734 115.598 114.35 115.152 114.131C114.716 113.904 114.214 113.79 113.645 113.79C113.067 113.79 112.551 113.927 112.096 114.203C111.65 114.468 111.295 114.843 111.029 115.327C110.774 115.81 110.646 116.379 110.646 117.034C110.646 117.66 110.774 118.215 111.029 118.699C111.295 119.182 111.65 119.562 112.096 119.837C112.551 120.102 113.067 120.235 113.645 120.235C114.195 120.235 114.683 120.126 115.11 119.908C115.545 119.68 115.891 119.372 116.147 118.983C116.403 118.585 116.541 118.125 116.56 117.603L117.029 118.357H113.517V116.664H118.237C118.275 116.797 118.303 116.944 118.322 117.105C118.341 117.257 118.351 117.409 118.351 117.56C118.351 118.205 118.228 118.798 117.981 119.339C117.735 119.88 117.394 120.349 116.958 120.748C116.531 121.146 116.034 121.454 115.465 121.672C114.906 121.891 114.299 122 113.645 122Z" fill="#A97BBE"/>
<path d="M101.732 118.144H106.509V119.88H101.732V118.144ZM99.7132 121.829L103.154 112.14H105.329L108.655 121.829H106.779L103.978 113.42H104.518L101.59 121.829H99.7132Z" fill="#A97BBE"/>
<path d="M208.422 106.267V96.5776H210.284V106.267H208.422ZM213.81 106.267L209.616 101.572V101.301L213.91 96.5776H216.227L211.493 101.785L211.578 101.088L216.255 106.267H213.81Z" fill="#A97BBE"/>
<path d="M206.494 106.267H204.632V96.5776H206.494V106.267Z" fill="#A97BBE"/>
<path d="M203.352 106.267H197.552V96.5776H199.414V105.072L199.002 104.489H203.352V106.267Z" fill="#A97BBE"/>
<path d="M188.069 106.267V96.5776H191.396C192.372 96.5776 193.221 96.7721 193.941 97.161C194.671 97.5499 195.235 98.1048 195.633 98.8257C196.04 99.5466 196.244 100.415 196.244 101.429C196.244 102.454 196.04 103.327 195.633 104.047C195.235 104.768 194.671 105.319 193.941 105.698C193.211 106.077 192.358 106.267 191.382 106.267H188.069ZM189.932 105.115L189.235 104.489H191.254C191.851 104.489 192.377 104.379 192.832 104.161C193.296 103.943 193.661 103.611 193.927 103.165C194.192 102.719 194.325 102.141 194.325 101.429C194.325 100.747 194.192 100.177 193.927 99.7221C193.671 99.2668 193.311 98.9253 192.846 98.6976C192.391 98.47 191.865 98.3562 191.268 98.3562H189.136L189.932 97.787V105.115Z" fill="#A97BBE"/>
<path d="M184.476 106.267L178.875 98.783L179.728 98.5411V106.267H177.865V96.5776H179.529L185.002 103.891L184.277 103.991V96.5776H186.139V106.267H184.476Z" fill="#A97BBE"/>
<path d="M169.94 102.582H174.716V104.318H169.94V102.582ZM167.921 106.267L171.361 96.5776H173.536L176.863 106.267H174.986L172.186 97.8582H172.726L169.798 106.267H167.921Z" fill="#A97BBE"/>
<path d="M160.484 106.267V96.5776H163.867C164.616 96.5776 165.227 96.6772 165.701 96.8764C166.175 97.0661 166.526 97.3554 166.753 97.7444C166.981 98.1333 167.094 98.6218 167.094 99.2099C167.094 99.6936 166.985 100.116 166.767 100.476C166.549 100.837 166.256 101.121 165.886 101.33C165.516 101.529 165.109 101.629 164.663 101.629L164.72 101.074C165.289 101.074 165.767 101.178 166.156 101.387C166.545 101.595 166.843 101.885 167.052 102.255C167.26 102.625 167.364 103.056 167.364 103.549C167.364 104.441 167.09 105.119 166.54 105.584C165.99 106.039 165.185 106.267 164.123 106.267H160.484ZM162.346 97.5878V105.157L161.664 104.489H164.123C164.54 104.489 164.867 104.384 165.104 104.176C165.35 103.957 165.474 103.668 165.474 103.308C165.474 102.919 165.355 102.625 165.118 102.425C164.891 102.226 164.569 102.127 164.152 102.127H161.664V100.49H163.91C164.327 100.49 164.644 100.405 164.862 100.234C165.08 100.054 165.189 99.7885 165.189 99.4375C165.189 99.115 165.08 98.8542 164.862 98.655C164.644 98.4558 164.327 98.3562 163.91 98.3562H161.721L162.346 97.5878Z" fill="#A97BBE"/>
<path d="M152.102 101.828H151.135L153.779 96.5776H155.812L152.372 103.165L152.542 101.97V106.267H150.68V101.97L150.822 103.165L147.41 96.5776H149.472L152.102 101.828Z" fill="#A97BBE"/>
<path d="M146.589 106.267H144.726V96.5776H146.589V106.267Z" fill="#A97BBE"/>
<path d="M139.915 106.495C139.375 106.495 138.863 106.414 138.38 106.253C137.896 106.091 137.461 105.84 137.072 105.499C136.693 105.157 136.371 104.711 136.105 104.161L137.584 103.265C137.878 103.767 138.223 104.142 138.622 104.389C139.02 104.635 139.479 104.759 140 104.759C140.474 104.759 140.835 104.659 141.081 104.46C141.327 104.251 141.451 103.976 141.451 103.635C141.451 103.417 141.394 103.232 141.28 103.08C141.176 102.919 140.986 102.767 140.711 102.624C140.436 102.482 140.038 102.354 139.517 102.24C138.74 102.051 138.129 101.813 137.683 101.529C137.247 101.244 136.939 100.912 136.759 100.533C136.579 100.144 136.489 99.7172 136.489 99.2524C136.489 98.6927 136.622 98.2042 136.887 97.7869C137.162 97.36 137.551 97.0233 138.053 96.7767C138.555 96.53 139.152 96.4067 139.844 96.4067C140.64 96.4067 141.308 96.5632 141.849 96.8763C142.389 97.1798 142.83 97.5924 143.171 98.1141L141.692 99.1243C141.427 98.7829 141.124 98.541 140.782 98.3987C140.451 98.2469 140.109 98.171 139.759 98.171C139.304 98.171 138.953 98.2612 138.707 98.4414C138.47 98.6216 138.351 98.873 138.351 99.1955C138.351 99.48 138.47 99.7267 138.707 99.9353C138.953 100.135 139.427 100.32 140.128 100.49C140.925 100.68 141.56 100.912 142.033 101.187C142.507 101.463 142.844 101.794 143.043 102.183C143.251 102.572 143.356 103.042 143.356 103.592C143.356 104.142 143.213 104.635 142.929 105.072C142.654 105.508 142.256 105.854 141.735 106.11C141.223 106.367 140.617 106.495 139.915 106.495Z" fill="#A97BBE"/>
<path d="M131.016 106.438C130.211 106.438 129.519 106.286 128.941 105.982C128.363 105.669 127.917 105.214 127.604 104.617C127.292 104.01 127.135 103.26 127.135 102.369V96.5776H129.012V102.326C129.012 103.056 129.182 103.625 129.524 104.033C129.865 104.432 130.362 104.631 131.016 104.631C131.68 104.631 132.182 104.432 132.523 104.033C132.864 103.625 133.035 103.056 133.035 102.326V96.5776H134.897V102.369C134.897 103.26 134.741 104.01 134.428 104.617C134.125 105.214 133.684 105.669 133.106 105.982C132.528 106.286 131.831 106.438 131.016 106.438Z" fill="#A97BBE"/>
<path d="M122.464 106.495C121.924 106.495 121.412 106.414 120.929 106.253C120.445 106.091 120.009 105.84 119.621 105.499C119.242 105.157 118.919 104.711 118.654 104.161L120.133 103.265C120.426 103.767 120.772 104.142 121.17 104.389C121.568 104.635 122.028 104.759 122.549 104.759C123.023 104.759 123.383 104.659 123.63 104.46C123.876 104.251 123.999 103.976 123.999 103.635C123.999 103.417 123.943 103.232 123.829 103.08C123.725 102.919 123.535 102.767 123.26 102.624C122.985 102.482 122.587 102.354 122.066 102.24C121.289 102.051 120.678 101.813 120.232 101.529C119.796 101.244 119.488 100.912 119.308 100.533C119.128 100.144 119.038 99.7172 119.038 99.2524C119.038 98.6927 119.171 98.2042 119.436 97.7869C119.711 97.36 120.099 97.0233 120.602 96.7767C121.104 96.53 121.701 96.4067 122.393 96.4067C123.189 96.4067 123.857 96.5632 124.398 96.8763C124.938 97.1798 125.378 97.5924 125.72 98.1141L124.241 99.1243C123.976 98.7829 123.672 98.541 123.331 98.3987C123 98.2469 122.658 98.171 122.308 98.171C121.853 98.171 121.502 98.2612 121.256 98.4414C121.019 98.6216 120.9 98.873 120.9 99.1955C120.9 99.48 121.019 99.7267 121.256 99.9353C121.502 100.135 121.976 100.32 122.677 100.49C123.473 100.68 124.108 100.912 124.582 101.187C125.056 101.463 125.393 101.794 125.592 102.183C125.8 102.572 125.904 103.042 125.904 103.592C125.904 104.142 125.762 104.635 125.478 105.072C125.203 105.508 124.805 105.854 124.284 106.11C123.772 106.367 123.165 106.495 122.464 106.495Z" fill="#A97BBE"/>
<path d="M113.565 106.438C112.76 106.438 112.068 106.286 111.49 105.982C110.911 105.669 110.466 105.214 110.153 104.617C109.84 104.01 109.684 103.26 109.684 102.369V96.5776H111.561V102.326C111.561 103.056 111.731 103.625 112.072 104.033C112.414 104.432 112.911 104.631 113.565 104.631C114.229 104.631 114.731 104.432 115.072 104.033C115.413 103.625 115.584 103.056 115.584 102.326V96.5776H117.446V102.369C117.446 103.26 117.29 104.01 116.977 104.617C116.674 105.214 116.233 105.669 115.655 105.982C115.077 106.286 114.38 106.438 113.565 106.438Z" fill="#A97BBE"/>
<path d="M101.974 96.5776L104.476 100.32H104.049L106.551 96.5776H108.783L105.243 101.671L105.101 101.003L108.797 106.267H106.523L103.85 102.369H104.533L101.903 106.267H99.6279L103.282 101.003L103.267 101.671L99.7417 96.5776H101.974Z" fill="#A97BBE"/>
<path d="M31.0982 10.3364L41.4259 8.19337e-05L51.7535 10.3364L41.4259 20.6728L31.0982 10.3364Z" fill="#A97BBE"/>
<path d="M46.6473 25.8984L56.975 15.5621L67.3026 25.8984L56.975 36.2348L46.6473 25.8984Z" fill="#BA6B9E"/>
<path d="M62.1964 41.4604L72.5241 31.1241L82.8517 41.4604L72.5241 51.7968L62.1964 41.4604Z" fill="#CC568D"/>
<path d="M15.5491 25.8984L25.8768 15.5621L36.2045 25.8984L25.8768 36.2348L15.5491 25.8984Z" fill="#A97BBE"/>
<path d="M31.0982 41.4604L41.4259 31.1241L51.7535 41.4604L41.4259 51.7968L31.0982 41.4604Z" fill="#B469AF"/>
<path d="M46.6473 57.0229L56.975 46.6866L67.3026 57.0229L56.975 67.3593L46.6473 57.0229Z" fill="#CC568D"/>
<path d="M62.1964 72.585L72.5241 62.2486L82.8517 72.585L72.5241 82.9213L62.1964 72.585Z" fill="#F3822D"/>
<path d="M0 41.4604L10.3277 31.1241L20.6554 41.4604L10.3277 51.7968L0 41.4604Z" fill="#A97BBE"/>
<path d="M15.5491 57.0229L25.8768 46.6866L36.2045 57.0229L25.8768 67.3593L15.5491 57.0229Z" fill="#B469AF"/>
<path d="M0 74.8081L10.3277 64.4718L20.6554 74.8081L10.3277 85.1445L0 74.8081Z" fill="#BA6B9E"/>
<path d="M31.0982 72.585L41.4259 62.2486L51.7535 72.585L41.4259 82.9213L31.0982 72.585Z" fill="#CC568D"/>
<path d="M15.5491 90.3701L25.8768 80.0338L36.2045 90.3701L25.8768 100.706L15.5491 90.3701Z" fill="#CC568D"/>
<path d="M46.6473 88.147L56.975 77.8106L67.3026 88.147L56.975 98.4833L46.6473 88.147Z" fill="#F3822D"/>
<path d="M31.0982 105.932L41.4259 95.5958L51.7535 105.932L41.4259 116.268L31.0982 105.932Z" fill="#F3822D"/>
</svg>
