<svg width="19" height="11" viewBox="0 0 19 11" fill="none" xmlns="http://www.w3.org/2000/svg">
<path fill-rule="evenodd" clip-rule="evenodd" d="M2.11759 0.176483C1.81515 0.176548 1.51951 0.266281 1.26806 0.434339C1.01661 0.602398 0.820634 0.841236 0.704903 1.12066C0.589173 1.40008 0.558885 1.70754 0.617871 2.00418C0.676857 2.30081 0.822467 2.5733 1.03629 2.78719L8.68335 10.4342C8.97016 10.721 9.3591 10.882 9.76465 10.882C10.1702 10.882 10.5591 10.721 10.8459 10.4342L18.493 2.78719C18.7068 2.5733 18.8524 2.30081 18.9114 2.00418C18.9704 1.70754 18.9401 1.40008 18.8244 1.12066C18.7087 0.841236 18.5127 0.602398 18.2612 0.434339C18.0098 0.266281 17.7141 0.176548 17.4117 0.176483H2.11759Z" fill="#572C6B"/>
</svg>
