<svg width="28" height="28" viewBox="0 0 28 28" fill="none" xmlns="http://www.w3.org/2000/svg">
<path d="M28.0001 21C28.0001 21.8251 27.6723 22.6165 27.0889 23.1999C26.5054 23.7834 25.7141 24.1111 24.889 24.1111H18.6667V3.88892H24.889C25.7141 3.88892 26.5054 4.21669 27.0889 4.80014C27.6723 5.38359 28.0001 6.17491 28.0001 7.00003V21Z" fill="#CE2B37"/>
<path d="M3.11111 3.88892C2.28599 3.88892 1.49467 4.21669 0.911223 4.80014C0.327777 5.38359 0 6.17491 0 7.00003L0 21C0 21.8251 0.327777 22.6165 0.911223 23.1999C1.49467 23.7834 2.28599 24.1111 3.11111 24.1111H9.33333V3.88892H3.11111Z" fill="#009246"/>
<path d="M9.33325 3.88892H18.6666V24.1111H9.33325V3.88892Z" fill="#EEEEEE"/>
</svg>
