<svg width="40" height="40" viewBox="0 0 40 40" fill="none" xmlns="http://www.w3.org/2000/svg">
<path d="M21.7133 3.3335C23.5883 3.3385 24.54 3.3485 25.3617 3.37183L25.685 3.3835C26.0583 3.39683 26.4267 3.4135 26.8717 3.4335C28.645 3.51683 29.855 3.79683 30.9167 4.2085C32.0167 4.63183 32.9433 5.20516 33.87 6.13016C34.7178 6.96305 35.3736 7.97095 35.7917 9.0835C36.2033 10.1452 36.4833 11.3552 36.5667 13.1302C36.5867 13.5735 36.6033 13.9418 36.6167 14.3168L36.6267 14.6402C36.6517 15.4602 36.6617 16.4118 36.665 18.2868L36.6667 19.5302V21.7135C36.6707 22.9292 36.658 24.1448 36.6283 25.3602L36.6183 25.6835C36.605 26.0585 36.5883 26.4268 36.5683 26.8702C36.485 28.6452 36.2017 29.8535 35.7917 30.9168C35.3736 32.0294 34.7178 33.0373 33.87 33.8702C33.0371 34.718 32.0292 35.3738 30.9167 35.7918C29.855 36.2035 28.645 36.4835 26.8717 36.5668L25.685 36.6168L25.3617 36.6268C24.54 36.6502 23.5883 36.6618 21.7133 36.6652L20.47 36.6668H18.2883C17.0721 36.6711 15.8559 36.6583 14.64 36.6285L14.3167 36.6185C13.921 36.6035 13.5255 36.5863 13.13 36.5668C11.3567 36.4835 10.1467 36.2035 9.08334 35.7918C7.9714 35.3736 6.96408 34.7178 6.13168 33.8702C5.28325 33.0374 4.62686 32.0295 4.20835 30.9168C3.79668 29.8552 3.51668 28.6452 3.43335 26.8702L3.38335 25.6835L3.37501 25.3602C3.34429 24.1449 3.3304 22.9292 3.33335 21.7135V18.2868C3.32873 17.0712 3.34096 15.8555 3.37001 14.6402L3.38168 14.3168C3.39501 13.9418 3.41168 13.5735 3.43168 13.1302C3.51501 11.3552 3.79501 10.1468 4.20668 9.0835C4.62617 7.97049 5.28372 6.96256 6.13335 6.13016C6.96527 5.28274 7.97199 4.62695 9.08334 4.2085C10.1467 3.79683 11.355 3.51683 13.13 3.4335C13.5733 3.4135 13.9433 3.39683 14.3167 3.3835L14.64 3.3735C15.8553 3.34388 17.071 3.3311 18.2867 3.33516L21.7133 3.3335ZM20 11.6668C17.7899 11.6668 15.6703 12.5448 14.1075 14.1076C12.5447 15.6704 11.6667 17.79 11.6667 20.0002C11.6667 22.2103 12.5447 24.3299 14.1075 25.8927C15.6703 27.4555 17.7899 28.3335 20 28.3335C22.2101 28.3335 24.3298 27.4555 25.8926 25.8927C27.4554 24.3299 28.3333 22.2103 28.3333 20.0002C28.3333 17.79 27.4554 15.6704 25.8926 14.1076C24.3298 12.5448 22.2101 11.6668 20 11.6668ZM20 15.0002C20.6566 15.0001 21.3068 15.1293 21.9135 15.3804C22.5202 15.6316 23.0714 15.9998 23.5358 16.464C24.0002 16.9283 24.3685 17.4794 24.6199 18.086C24.8713 18.6926 25.0007 19.3427 25.0008 19.9993C25.001 20.6559 24.8717 21.3061 24.6206 21.9128C24.3694 22.5195 24.0012 23.0707 23.537 23.5351C23.0728 23.9995 22.5216 24.3679 21.915 24.6192C21.3084 24.8706 20.6583 25.0001 20.0017 25.0002C18.6756 25.0002 17.4038 24.4734 16.4661 23.5357C15.5285 22.598 15.0017 21.3262 15.0017 20.0002C15.0017 18.6741 15.5285 17.4023 16.4661 16.4646C17.4038 15.5269 18.6756 15.0002 20.0017 15.0002M28.7517 9.16683C28.1991 9.16683 27.6692 9.38632 27.2785 9.77702C26.8878 10.1677 26.6683 10.6976 26.6683 11.2502C26.6683 11.8027 26.8878 12.3326 27.2785 12.7233C27.6692 13.114 28.1991 13.3335 28.7517 13.3335C29.3042 13.3335 29.8341 13.114 30.2248 12.7233C30.6155 12.3326 30.835 11.8027 30.835 11.2502C30.835 10.6976 30.6155 10.1677 30.2248 9.77702C29.8341 9.38632 29.3042 9.16683 28.7517 9.16683Z" fill="#D9D9D9"/>
</svg>
