<svg width="48" height="48" viewBox="0 0 48 48" fill="none" xmlns="http://www.w3.org/2000/svg">
<path d="M39.1049 5.99386C38.6235 6.02957 38.151 6.14252 37.7054 6.32836H37.6994C37.2719 6.49786 35.2394 7.35286 32.1494 8.64886L21.0764 13.3124C13.1309 16.6574 5.32043 19.9514 5.32043 19.9514L5.41343 19.9154C5.41343 19.9154 4.87493 20.0924 4.31243 20.4779C3.96414 20.698 3.66492 20.9875 3.43343 21.3284C3.15743 21.7334 2.93543 22.3529 3.01793 22.9934C3.15293 24.0764 3.85493 24.7259 4.35893 25.0844C4.86893 25.4474 5.35493 25.6169 5.35493 25.6169H5.36693L12.6914 28.0844C13.0199 29.1389 14.9234 35.3969 15.3809 36.8384C15.6509 37.6994 15.9134 38.2379 16.2419 38.6489C16.3989 38.8589 16.5884 39.0344 16.8104 39.1754C16.9257 39.2447 17.0499 39.2982 17.1794 39.3344L17.1044 39.3164C17.1269 39.3224 17.1449 39.3404 17.1614 39.3464C17.2214 39.3629 17.2619 39.3689 17.3384 39.3809C18.4979 39.7319 19.4294 39.0119 19.4294 39.0119L19.4819 38.9699L23.8064 35.0324L31.0544 40.5929L31.2194 40.6634C32.7299 41.3264 34.2599 40.9574 35.0684 40.3064C35.8829 39.6509 36.1994 38.8124 36.1994 38.8124L36.2519 38.6774L41.8529 9.98386C42.0119 9.27586 42.0524 8.61286 41.8769 7.96936C41.6968 7.31765 41.2788 6.75721 40.7054 6.39886C40.2246 6.10636 39.667 5.96525 39.1049 5.99386ZM38.9534 9.06886C38.9474 9.16336 38.9654 9.15286 38.9234 9.33436V9.35086L33.3749 37.7459C33.3509 37.7864 33.3104 37.8749 33.1994 37.9634C33.0824 38.0564 32.9894 38.1149 32.5019 37.9214L23.6369 31.1249L18.2819 36.0059L19.4069 28.8209L33.8909 15.3209C34.4879 14.7659 34.2884 14.6489 34.2884 14.6489C34.3304 13.9679 33.3869 14.4494 33.3869 14.4494L15.1229 25.7639L15.1169 25.7339L6.36293 22.7864V22.7804L6.34043 22.7759L6.38543 22.7579L6.43343 22.7339L6.47993 22.7174C6.47993 22.7174 14.2964 19.4234 22.2419 16.0784C26.2199 14.4029 30.2279 12.7154 33.3104 11.4134C35.1385 10.6439 36.9686 9.87886 38.8004 9.11836C38.9234 9.07036 38.8649 9.06886 38.9534 9.06886Z" fill="#464646"/>
</svg>
