<svg width="48" height="48" viewBox="0 0 48 48" fill="none" xmlns="http://www.w3.org/2000/svg">
<path d="M22 35C21.6022 35 21.2206 35.158 20.9393 35.4393C20.658 35.7206 20.5 36.1022 20.5 36.5C20.5 36.8978 20.658 37.2794 20.9393 37.5607C21.2206 37.842 21.6022 38 22 38H26C26.3978 38 26.7794 37.842 27.0607 37.5607C27.342 37.2794 27.5 36.8978 27.5 36.5C27.5 36.1022 27.342 35.7206 27.0607 35.4393C26.7794 35.158 26.3978 35 26 35H22Z" fill="#464646"/>
<path fill-rule="evenodd" clip-rule="evenodd" d="M16 4C14.8065 4 13.6619 4.47411 12.818 5.31802C11.9741 6.16193 11.5 7.30653 11.5 8.5V39.5C11.5 40.6935 11.9741 41.8381 12.818 42.682C13.6619 43.5259 14.8065 44 16 44H32C33.1935 44 34.3381 43.5259 35.182 42.682C36.0259 41.8381 36.5 40.6935 36.5 39.5V8.5C36.5 7.30653 36.0259 6.16193 35.182 5.31802C34.3381 4.47411 33.1935 4 32 4H16ZM14.5 8.5C14.5 8.10218 14.658 7.72064 14.9393 7.43934C15.2206 7.15804 15.6022 7 16 7H32C32.3978 7 32.7794 7.15804 33.0607 7.43934C33.342 7.72064 33.5 8.10218 33.5 8.5V39.5C33.5 39.8978 33.342 40.2794 33.0607 40.5607C32.7794 40.842 32.3978 41 32 41H16C15.6022 41 15.2206 40.842 14.9393 40.5607C14.658 40.2794 14.5 39.8978 14.5 39.5V8.5Z" fill="#464646"/>
</svg>
