<svg width="28" height="29" viewBox="0 0 28 29" fill="none" xmlns="http://www.w3.org/2000/svg">
<path d="M17.8843 3.63623L12.5666 7.0495L13.1056 7.34464L17.8367 4.30785L25.8612 8.85325L21.2585 11.8076L21.4827 11.9304V12.3049L25.0878 9.9907L25.8445 10.4193L21.4826 13.2191V13.8602L25.0172 11.5913L25.8445 12.06L21.4826 14.8597V15.5008L25.0172 13.232L25.8445 13.7007L21.4826 16.5004V17.1415L26.9532 13.63L25.5954 12.861L26.9531 11.9895L25.5953 11.2203L26.9531 10.3488L25.6659 9.61964L26.9698 8.78265L17.8843 3.63623ZM19.5833 6.08295C18.4328 6.66023 16.9003 6.7579 15.8213 6.32264L13.712 7.67654L20.652 11.4757L22.6526 10.1916C21.8646 9.5695 21.9302 8.64123 22.8135 7.91279L19.5833 6.08295ZM12.4416 8.10332L8.57588 10.6241L15.9921 14.8933L16.0648 14.8468C16.2015 14.7588 16.3946 14.6341 16.6249 14.4852C17.0854 14.1875 17.6947 13.7928 18.3024 13.3991C19.1775 12.832 19.6284 12.5394 20.0478 12.2674L12.4416 8.10332ZM18.7562 8.16731H18.7564C18.9313 8.16838 19.0917 8.20586 19.2114 8.27368C19.2811 8.31314 19.3351 8.36182 19.3705 8.41693C19.4058 8.47205 19.4217 8.53252 19.4173 8.59489C19.4129 8.65727 19.3882 8.72032 19.3447 8.78045C19.3012 8.84058 19.2398 8.89662 19.1638 8.94535C19.0879 8.99408 18.999 9.03456 18.9022 9.06448C18.8054 9.0944 18.7026 9.11317 18.5996 9.11972C18.4967 9.12627 18.3956 9.12047 18.3022 9.10266C18.2088 9.08485 18.1248 9.05536 18.0551 9.01589C17.9144 8.93619 17.8404 8.82067 17.8493 8.69472C17.8583 8.56878 17.9494 8.44274 18.1027 8.34433C18.1898 8.28843 18.2938 8.24348 18.4069 8.21282C18.5201 8.18217 18.6395 8.16661 18.7562 8.16731ZM6.81123 10.7439L1.04689 14.4438L2.33407 15.1729L1.03021 16.0099L2.38799 16.779L1.03021 17.6506L2.38799 18.4197L1.03021 19.2913L10.1157 24.4377L15.6011 20.9166V20.2757L10.1634 23.766L2.13884 19.2206L2.91841 18.7202L10.1157 22.797L15.6011 19.276V18.635L10.1634 22.1254L2.13884 17.58L2.91841 17.0796L10.1157 21.1564L15.6011 17.6354V16.9944L10.1634 20.4848L2.13884 15.9393L2.86454 15.4734L10.1325 19.5903L15.6011 16.08V15.8038L15.3014 15.6313L10.1799 18.9186L2.15563 14.3732L7.33781 11.0469L6.81117 10.7437L6.81123 10.7439ZM7.93013 11.3881L5.3642 13.035C6.15224 13.6571 6.08662 14.5853 5.20331 15.3139L8.43359 17.1437C9.58405 16.5664 11.1164 16.4688 12.1954 16.904L14.7091 15.2905L7.93003 11.3881L7.93013 11.3881ZM20.4983 13.1485C20.0583 13.4338 19.6704 13.6857 18.8378 14.2252C18.2785 14.5878 17.7191 14.95 17.1594 15.312C16.9288 15.461 16.7353 15.586 16.5973 15.6747C16.5924 15.678 16.5904 15.6791 16.5856 15.6822V20.3812L20.4983 17.7513L20.4983 13.1485ZM9.50661 14.1045C9.68153 14.1055 9.84189 14.1431 9.96161 14.2109C10.1023 14.2906 10.1763 14.4062 10.1674 14.5321C10.1585 14.658 10.0674 14.7841 9.91403 14.8825C9.76072 14.9809 9.5578 15.0436 9.34993 15.0568C9.14205 15.07 8.94622 15.0327 8.80552 14.953C8.66482 14.8733 8.59079 14.7578 8.59971 14.6319C8.60863 14.5059 8.69978 14.3799 8.8531 14.2815C8.94017 14.2256 9.04417 14.1806 9.15733 14.15C9.27049 14.1194 9.38989 14.1038 9.50661 14.1045V14.1045Z" fill="#808080"/>
</svg>
