<svg width="40" height="40" viewBox="0 0 40 40" fill="none" xmlns="http://www.w3.org/2000/svg">
<g clip-path="url(#clip0_347_1182)">
<path d="M20 9.37294e-08C23.0675 0.000887867 26.0938 0.707384 28.8446 2.06484C31.5955 3.4223 33.9972 5.39434 35.8641 7.82842C37.7309 10.2625 39.0128 13.0934 39.6107 16.1021C40.2085 19.1108 40.1063 22.2168 39.3118 25.1797C38.5174 28.1426 37.052 30.883 35.0291 33.189C33.0062 35.495 30.48 37.3048 27.6458 38.4784C24.8116 39.652 21.7455 40.1579 18.6845 39.9571C15.6236 39.7562 12.6498 38.8539 9.99332 37.32L2.19332 39.9133C1.89993 40.0107 1.58525 40.0245 1.28446 39.9532C0.983664 39.882 0.708609 39.7285 0.490034 39.5099C0.271458 39.2914 0.117975 39.0163 0.046739 38.7155C-0.0244968 38.4147 -0.0106785 38.1001 0.0866495 37.8067L2.68332 30.01C0.925622 26.9696 -0.000515485 23.5201 -0.00195145 20.0082C-0.00338742 16.4963 0.919929 13.046 2.67514 10.0042C4.43034 6.96237 6.95556 4.43637 9.9968 2.68021C13.0381 0.924053 16.4881 -0.000339856 20 9.37294e-08ZM20 3.33333C17.0166 3.33267 14.0877 4.13284 11.519 5.65031C8.95035 7.16779 6.8361 9.34693 5.39696 11.9603C3.95781 14.5736 3.24653 17.5254 3.33735 20.5074C3.42818 23.4894 4.31779 26.3924 5.91332 28.9133C6.04636 29.1221 6.13124 29.3578 6.1618 29.6034C6.19236 29.849 6.16782 30.0984 6.08998 30.3333L4.29998 35.7L9.66998 33.9133C9.9047 33.835 10.1539 33.8099 10.3995 33.8399C10.6451 33.8699 10.881 33.9542 11.09 34.0867C13.2746 35.4681 15.7505 36.3224 18.3221 36.5822C20.8937 36.8421 23.4905 36.5002 25.9072 35.5837C28.3239 34.6673 30.4944 33.2012 32.2471 31.3016C33.9997 29.4019 35.2865 27.1206 36.0058 24.638C36.7251 22.1554 36.8571 19.5396 36.3914 16.9972C35.9257 14.4548 34.8751 12.0555 33.3226 9.98907C31.7701 7.92259 29.7582 6.24551 27.446 5.09038C25.1338 3.93525 22.5847 3.33372 20 3.33333ZM13.1 10.01C13.43 10.01 13.7566 10.01 14.04 10.0233C14.34 10.0433 14.7466 9.89667 15.15 10.93C15.56 11.9933 16.5433 14.61 16.6666 14.8733C16.79 15.1367 16.8733 15.4467 16.71 15.8C16.5433 16.1567 16.46 16.3767 16.2166 16.68C15.97 16.9933 15.7 17.3767 15.4766 17.6133C15.23 17.8767 14.9766 18.16 15.2633 18.6933C15.5466 19.22 16.5366 20.96 18 22.3633C19.88 24.1733 21.4666 24.7367 21.96 25C22.4533 25.2633 22.74 25.2133 23.0233 24.8667C23.31 24.5167 24.25 23.32 24.58 22.7867C24.9066 22.26 25.2366 22.3433 25.6866 22.5233C26.1366 22.7 28.56 23.98 29.05 24.2433C29.5433 24.5133 29.8733 24.6467 29.9933 24.87C30.12 25.09 30.12 26.1533 29.71 27.3867C29.3 28.63 27.3366 29.76 26.39 29.91C25.3539 30.098 24.2873 30.0247 23.2866 29.6967C22.333 29.3775 21.3982 29.0047 20.4866 28.58C15.5466 26.28 12.32 20.9267 12.0766 20.58C11.83 20.2267 10.0666 17.7033 10.0666 15.0933C10.0666 12.4833 11.3333 11.2033 11.7866 10.6767C12.2366 10.1433 12.7733 10.01 13.1 10.01Z" fill="#D9D9D9"/>
</g>
<defs>
<clipPath id="clip0_347_1182">
<rect width="40" height="40" fill="white"/>
</clipPath>
</defs>
</svg>
